<svg width="42" height="42" viewBox="0 0 42 42" fill="none" xmlns="http://www.w3.org/2000/svg">
<path d="M27.8209 26.3484C28.8135 25.8152 29.9496 25.5117 31.1596 25.5117H31.1637C31.2867 25.5117 31.3441 25.3641 31.2539 25.282C29.9956 24.1528 28.5582 23.2407 27.0006 22.5832C26.9842 22.575 26.9678 22.5709 26.9514 22.5627C29.4984 20.7129 31.1555 17.7064 31.1555 14.3145C31.1555 8.69531 26.6109 4.14258 21.0041 4.14258C15.3973 4.14258 10.8568 8.69531 10.8568 14.3145C10.8568 17.7064 12.5139 20.7129 15.065 22.5627C15.0486 22.5709 15.0322 22.575 15.0158 22.5832C13.1824 23.3584 11.5377 24.4699 10.1227 25.8891C8.7158 27.2934 7.59575 28.9581 6.82501 30.7904C6.06669 32.5847 5.65743 34.5071 5.61915 36.4547C5.61806 36.4985 5.62574 36.542 5.64173 36.5828C5.65773 36.6235 5.68173 36.6607 5.71231 36.692C5.74289 36.7234 5.77943 36.7483 5.81978 36.7653C5.86014 36.7823 5.90349 36.791 5.94728 36.791H8.40411C8.58048 36.791 8.72814 36.6475 8.73224 36.4711C8.81427 33.3047 10.0817 30.3393 12.3252 28.0916C14.6426 25.766 17.727 24.4863 21.0082 24.4863C23.3338 24.4863 25.565 25.1303 27.4887 26.3361C27.5381 26.3672 27.5948 26.3847 27.6531 26.3868C27.7115 26.389 27.7693 26.3757 27.8209 26.3484V26.3484ZM21.0082 21.3691C19.1297 21.3691 17.3619 20.635 16.0289 19.302C15.3731 18.6478 14.8531 17.8703 14.499 17.0143C14.145 16.1584 13.9637 15.2408 13.9658 14.3145C13.9658 12.4318 14.7 10.66 16.0289 9.32695C17.3578 7.99395 19.1256 7.25977 21.0082 7.25977C22.8908 7.25977 24.6545 7.99395 25.9875 9.32695C26.6434 9.98111 27.1633 10.7586 27.5174 11.6146C27.8715 12.4705 28.0527 13.3881 28.0506 14.3145C28.0506 16.1971 27.3164 17.9689 25.9875 19.302C24.6545 20.635 22.8867 21.3691 21.0082 21.3691ZM36.0938 31.1309H32.6484V27.6855C32.6484 27.5051 32.5008 27.3574 32.3203 27.3574H30.0234C29.843 27.3574 29.6953 27.5051 29.6953 27.6855V31.1309H26.25C26.0695 31.1309 25.9219 31.2785 25.9219 31.459V33.7559C25.9219 33.9363 26.0695 34.084 26.25 34.084H29.6953V37.5293C29.6953 37.7098 29.843 37.8574 30.0234 37.8574H32.3203C32.5008 37.8574 32.6484 37.7098 32.6484 37.5293V34.084H36.0938C36.2742 34.084 36.4219 33.9363 36.4219 33.7559V31.459C36.4219 31.2785 36.2742 31.1309 36.0938 31.1309Z" fill="black"/>
</svg>
