<svg width="42" height="42" viewBox="0 0 42 42" fill="none" xmlns="http://www.w3.org/2000/svg">
<path d="M35.5145 14.511L27.9895 22.022L25.7285 19.761L23.254 22.2355L27.9895 26.9675L37.9855 16.989L35.5145 14.511ZM7 14C7 17.99 10.01 21 14 21C17.99 21 21 17.99 21 14C21 10.01 17.99 7 14 7C10.01 7 7 10.01 7 14ZM17.5 14C17.5 16.0615 16.0615 17.5 14 17.5C11.9385 17.5 10.5 16.0615 10.5 14C10.5 11.9385 11.9385 10.5 14 10.5C16.0615 10.5 17.5 11.9385 17.5 14ZM7 31.5C7 28.6055 9.3555 26.25 12.25 26.25H15.75C18.6445 26.25 21 28.6055 21 31.5V33.25H24.5V31.5C24.5 26.6753 20.5747 22.75 15.75 22.75H12.25C7.42525 22.75 3.5 26.6753 3.5 31.5V33.25H7V31.5Z" fill="black"/>
</svg>
