<svg width="42" height="41" viewBox="0 0 42 41" fill="none" xmlns="http://www.w3.org/2000/svg">
<path d="M36.8023 25.48H15.4271L15.9044 28H35.4765C36.5995 28 37.4319 29.1262 37.183 30.3089L36.7807 32.2206C38.1436 32.9351 39.0833 34.4439 39.0833 36.19C39.0833 38.6471 37.2226 40.635 34.9399 40.5995C32.7653 40.5657 30.9769 38.6598 30.9182 36.3118C30.8861 35.0292 31.3619 33.8667 32.1434 33.0399H16.8566C17.6132 33.8405 18.0833 34.9557 18.0833 36.19C18.0833 38.6953 16.149 40.7127 13.8053 40.5951C11.7243 40.4908 10.0318 38.6748 9.92243 36.4279C9.83799 34.6927 10.6834 33.1633 11.9678 32.3655L6.84564 5.32H1.75C0.78349 5.32 0 4.47383 0 3.43V2.17C0 1.12617 0.78349 0.279999 1.75 0.279999H9.22607C10.0574 0.279999 10.774 0.911652 10.9406 1.79121L11.6089 5.32H40.2493C41.3723 5.32 42.2046 6.4462 41.9557 7.62887L38.5088 24.0089C38.3277 24.8694 37.6194 25.48 36.8023 25.48ZM29.75 13.51H26.25V10.36C26.25 9.66408 25.7277 9.1 25.0833 9.1H23.9167C23.2723 9.1 22.75 9.66408 22.75 10.36V13.51H19.25C18.6056 13.51 18.0833 14.0741 18.0833 14.77V16.03C18.0833 16.7259 18.6056 17.29 19.25 17.29H22.75V20.44C22.75 21.1359 23.2723 21.7 23.9167 21.7H25.0833C25.7277 21.7 26.25 21.1359 26.25 20.44V17.29H29.75C30.3944 17.29 30.9167 16.7259 30.9167 16.03V14.77C30.9167 14.0741 30.3944 13.51 29.75 13.51Z" fill="#E9EBEE"/>
</svg>
