<svg width="32" height="32" viewBox="0 0 32 32" fill="none" xmlns="http://www.w3.org/2000/svg">
<path d="M15.9998 9.50799C15.1473 9.50799 14.3031 9.67591 13.5154 10.0022C12.7278 10.3284 12.0121 10.8066 11.4093 11.4094C10.8064 12.0123 10.3282 12.728 10.002 13.5156C9.67572 14.3033 9.5078 15.1474 9.5078 16C9.5078 16.8525 9.67572 17.6967 10.002 18.4844C10.3282 19.272 10.8064 19.9877 11.4093 20.5905C12.0121 21.1934 12.7278 21.6716 13.5154 21.9978C14.3031 22.3241 15.1473 22.492 15.9998 22.492C17.7216 22.492 19.3729 21.808 20.5903 20.5905C21.8078 19.373 22.4918 17.7218 22.4918 16C22.4918 14.2782 21.8078 12.6269 20.5903 11.4094C19.3729 10.192 17.7216 9.50799 15.9998 9.50799ZM11.5078 16C11.5078 14.8086 11.9811 13.6661 12.8235 12.8237C13.6659 11.9812 14.8085 11.508 15.9998 11.508C17.1912 11.508 18.3337 11.9812 19.1761 12.8237C20.0185 13.6661 20.4918 14.8086 20.4918 16C20.4918 17.1913 20.0185 18.3339 19.1761 19.1763C18.3337 20.0187 17.1912 20.492 15.9998 20.492C14.8085 20.492 13.6659 20.0187 12.8235 19.1763C11.9811 18.3339 11.5078 17.1913 11.5078 16Z" fill="white"/>
<path d="M19.5925 2.68656C18.5385 -0.893444 13.4625 -0.893444 12.4085 2.68656L12.2205 3.32456C12.1469 3.57446 12.0183 3.80473 11.8441 3.99847C11.6699 4.19222 11.4546 4.34454 11.2139 4.44426C10.9733 4.54398 10.7133 4.58858 10.4532 4.57479C10.193 4.561 9.93925 4.48917 9.71046 4.36456L9.12646 4.04456C5.84647 2.26056 2.26046 5.84856 4.04646 9.12656L4.36446 9.71056C4.48908 9.93934 4.56091 10.1931 4.5747 10.4533C4.58849 10.7134 4.54389 10.9734 4.44417 11.214C4.34445 11.4547 4.19213 11.67 3.99838 11.8442C3.80463 12.0184 3.57437 12.1469 3.32446 12.2206L2.68646 12.4086C-0.893535 13.4626 -0.893535 18.5386 2.68646 19.5926L3.32446 19.7806C3.57437 19.8542 3.80463 19.9828 3.99838 20.1569C4.19213 20.3311 4.34445 20.5464 4.44417 20.7871C4.54389 21.0278 4.58849 21.2877 4.5747 21.5478C4.56091 21.808 4.48908 22.0618 4.36446 22.2906L4.04447 22.8746C2.26047 26.1546 5.84647 29.7426 9.12646 27.9546L9.71046 27.6366C9.93925 27.5119 10.193 27.4401 10.4532 27.4263C10.7133 27.4125 10.9733 27.4571 11.2139 27.5569C11.4546 27.6566 11.6699 27.8089 11.8441 28.0026C12.0183 28.1964 12.1469 28.4267 12.2205 28.6766L12.4085 29.3146C13.4625 32.8946 18.5385 32.8946 19.5925 29.3146L19.7805 28.6766C19.8541 28.4267 19.9827 28.1964 20.1568 28.0026C20.331 27.8089 20.5463 27.6566 20.787 27.5569C21.0277 27.4571 21.2876 27.4125 21.5478 27.4263C21.8079 27.4401 22.0617 27.5119 22.2905 27.6366L22.8745 27.9566C26.1545 29.7426 29.7425 26.1526 27.9545 22.8746L27.6365 22.2906C27.5119 22.0618 27.44 21.808 27.4262 21.5478C27.4124 21.2877 27.457 21.0278 27.5568 20.7871C27.6565 20.5464 27.8088 20.3311 28.0025 20.1569C28.1963 19.9828 28.4266 19.8542 28.6765 19.7806L29.3145 19.5926C32.8945 18.5386 32.8945 13.4626 29.3145 12.4086L28.6765 12.2206C28.4266 12.1469 28.1963 12.0184 28.0025 11.8442C27.8088 11.67 27.6565 11.4547 27.5568 11.214C27.457 10.9734 27.4124 10.7134 27.4262 10.4533C27.44 10.1931 27.5119 9.93934 27.6365 9.71056L27.9565 9.12656C29.7425 5.84656 26.1525 2.26056 22.8745 4.04656L22.2905 4.36456C22.0617 4.48917 21.8079 4.561 21.5478 4.57479C21.2876 4.58858 21.0277 4.54398 20.787 4.44426C20.5463 4.34454 20.331 4.19222 20.1568 3.99847C19.9827 3.80473 19.8541 3.57446 19.7805 3.32456L19.5925 2.68656ZM14.3265 3.25256C14.8185 1.58256 17.1825 1.58256 17.6745 3.25256L17.8625 3.89056C18.0205 4.42673 18.2965 4.92073 18.6703 5.33636C19.0441 5.75198 19.5062 6.07868 20.0226 6.29252C20.5391 6.50635 21.0968 6.60189 21.655 6.57214C22.2132 6.54238 22.7577 6.38808 23.2485 6.12056L23.8305 5.80056C25.3585 4.97056 27.0305 6.64056 26.1985 8.17056L25.8805 8.75456C25.6133 9.24541 25.4594 9.78981 25.43 10.3479C25.4006 10.9059 25.4964 11.4635 25.7104 11.9797C25.9244 12.496 26.2512 12.9578 26.6668 13.3313C27.0824 13.7049 27.5764 13.9807 28.1125 14.1386L28.7485 14.3266C30.4185 14.8186 30.4185 17.1826 28.7485 17.6746L28.1105 17.8626C27.5743 18.0206 27.0803 18.2966 26.6647 18.6704C26.249 19.0442 25.9223 19.5062 25.7085 20.0227C25.4947 20.5392 25.3991 21.0969 25.4289 21.6551C25.4586 22.2133 25.6129 22.7578 25.8805 23.2486L26.2005 23.8306C27.0305 25.3586 25.3605 27.0306 23.8305 26.1986L23.2485 25.8806C22.7575 25.6131 22.2129 25.4588 21.6547 25.4292C21.0964 25.3996 20.5385 25.4953 20.022 25.7093C19.5055 25.9234 19.0435 26.2503 18.6698 26.6661C18.2961 27.082 18.0203 27.5762 17.8625 28.1126L17.6745 28.7486C17.1825 30.4186 14.8185 30.4186 14.3265 28.7486L14.1385 28.1106C13.9804 27.5747 13.7044 27.0809 13.3307 26.6655C12.9571 26.2501 12.4952 25.9235 11.979 25.7097C11.4628 25.4959 10.9053 25.4003 10.3474 25.4299C9.78946 25.4594 9.24519 25.6134 8.75446 25.8806L8.17046 26.2006C6.64246 27.0306 4.97046 25.3606 5.80246 23.8306L6.12046 23.2486C6.38837 22.7577 6.54297 22.213 6.57292 21.6546C6.60287 21.0962 6.50741 20.5382 6.29355 20.0214C6.07969 19.5047 5.75285 19.0424 5.33702 18.6685C4.92119 18.2946 4.42691 18.0185 3.89046 17.8606L3.25246 17.6726C1.58246 17.1806 1.58246 14.8166 3.25246 14.3246L3.89046 14.1366C4.42608 13.9784 4.91954 13.7024 5.33475 13.3289C5.74996 12.9554 6.07639 12.4938 6.29017 11.9779C6.50395 11.4619 6.59966 10.9047 6.5703 10.347C6.54093 9.78929 6.38724 9.2452 6.12046 8.75456L5.80046 8.17056C4.97046 6.64256 6.64046 4.97056 8.17046 5.80256L8.75446 6.12056C9.24519 6.38771 9.78946 6.5417 10.3474 6.57126C10.9053 6.60082 11.4628 6.5052 11.979 6.29139C12.4952 6.07758 12.9571 5.75101 13.3307 5.3356C13.7044 4.92018 13.9804 4.42645 14.1385 3.89056L14.3265 3.25256Z" fill="white"/>
</svg>
