<svg width="43" height="41" viewBox="0 0 43 41" fill="none" xmlns="http://www.w3.org/2000/svg">
<path d="M21.0733 9.65498C19.8287 9.68594 18.6193 10.1794 17.5981 11.073C16.5769 11.9667 15.7898 13.2203 15.3363 14.6753C14.8828 16.1304 14.7832 17.7216 15.0503 19.2476C15.3173 20.7737 15.9389 22.1661 16.8364 23.2488C17.7339 24.3315 18.8671 25.0559 20.0927 25.3302C21.3182 25.6046 22.5811 25.4167 23.7215 24.7903C24.862 24.1639 25.8289 23.1272 26.4998 21.8111C27.1708 20.495 27.5158 18.9588 27.4911 17.3967C27.458 15.3019 26.7633 13.3095 25.5597 11.8576C24.3561 10.4058 22.7423 9.61346 21.0733 9.65498ZM21.2729 22.2922C20.5261 22.3107 19.7917 22.051 19.1625 21.5457C18.5334 21.0404 18.0377 20.3123 17.7383 19.4535C17.4388 18.5947 17.349 17.6437 17.4802 16.7208C17.6114 15.7979 17.9576 14.9446 18.4752 14.2687C18.9928 13.5928 19.6585 13.1247 20.388 12.9237C21.1176 12.7226 21.8783 12.7975 22.5739 13.1391C23.2695 13.4806 23.8688 14.0733 24.296 14.8423C24.7232 15.6113 24.9591 16.522 24.9739 17.4593C24.9927 18.7158 24.6136 19.9303 23.9198 20.8364C23.2259 21.7425 22.274 22.266 21.2729 22.2922Z" fill="black"/>
<path d="M20.6858 0.500599C16.5945 0.599613 12.6138 1.84941 9.24716 4.09193C5.88047 6.33446 3.27896 9.469 1.77161 13.0992C0.264269 16.7293 -0.081215 20.6921 0.778852 24.4863C1.63892 28.2806 3.66591 31.7358 6.60349 34.4152C9.54108 37.0946 13.2573 38.8778 17.2823 39.5393C21.3072 40.2007 25.4601 39.7107 29.2158 38.1313C32.9715 36.5518 36.1613 33.9539 38.3818 30.6659C40.6023 27.3779 41.7538 23.5476 41.6906 19.6594C41.5998 14.4473 39.3373 9.50315 35.3995 5.91144C31.4617 2.31973 26.1701 0.373819 20.6858 0.500599V0.500599ZM12.3761 34.9463L12.3447 33.0127C12.3277 31.8957 12.7778 30.8135 13.596 30.0036C14.4142 29.1937 15.5337 28.7223 16.709 28.6927L25.5743 28.4781C26.7496 28.4508 27.8836 28.8677 28.7274 29.6374C29.5713 30.4071 30.056 31.4667 30.0754 32.5836L30.1067 34.5172C27.4406 36.0753 24.3939 36.9361 21.2784 37.0115C18.163 37.0869 15.0907 36.3742 12.3761 34.9463V34.9463ZM33.017 32.4084C32.9576 30.5673 32.1395 28.8292 30.7388 27.5687C29.3381 26.3082 27.4671 25.6262 25.5287 25.6697L16.6634 25.8842C14.7252 25.9346 12.8777 26.7066 11.519 28.0338C10.1604 29.3611 9.39928 31.1374 9.39973 32.98C6.68337 30.771 4.74523 27.8231 3.84195 24.5265C2.93866 21.23 3.11284 17.7403 4.34143 14.5196C5.57001 11.2989 7.79504 8.49913 10.7219 6.49095C13.6487 4.48276 17.1394 3.36093 20.7315 3.27399C24.3237 3.18706 27.848 4.13912 30.8377 6.00412C33.8274 7.86911 36.1416 10.5591 37.4737 13.7178C38.8058 16.8765 39.0931 20.355 38.2975 23.6927C37.5019 27.0303 35.661 30.0697 33.0184 32.4084L33.017 32.4084Z" fill="black"/>
</svg>
