<svg width="42" height="41" viewBox="0 0 42 41" fill="none" xmlns="http://www.w3.org/2000/svg">
<path d="M23.052 0.279999V4.35844C32.2938 5.44871 38.841 13.5046 37.7042 22.3682C36.7358 29.7174 30.7149 35.5524 23.052 36.4206V40.4587C34.6306 39.3482 43.0514 29.4953 41.8936 18.3907C40.9462 8.8003 33.0096 1.22894 23.052 0.279999ZM18.8416 0.34057C14.7364 0.724185 10.8208 2.23846 7.62084 4.78243L10.6313 7.77059C12.9891 5.95347 15.8311 4.78243 18.8416 4.37863V0.34057ZM4.6525 7.62926C2.02027 10.6928 0.400414 14.4396 0 18.3907H4.21041C4.6104 15.5237 5.78931 12.798 7.66294 10.5165L4.6525 7.62926ZM0.021052 22.4287C0.442093 26.386 2.0631 30.1212 4.67355 33.1902L7.66294 30.303C5.8039 28.0206 4.61872 25.301 4.23146 22.4287H0.021052ZM10.6313 33.2709L7.62084 36.037C10.8098 38.5864 14.7138 40.174 18.8416 40.6V36.5619C15.8467 36.1905 13.011 35.0539 10.6313 33.2709ZM31.0939 26.8504L22.4415 18.5522C23.3046 16.4524 22.8204 13.9892 21.0099 12.273C19.1153 10.4357 16.2732 10.0723 13.9786 11.0818L18.0627 14.9987L15.2206 17.7446L11.0313 13.8075C9.89446 16.0082 10.4208 18.7339 12.2733 20.5712C14.0838 22.3076 16.6522 22.7518 18.8416 21.9442L27.494 30.2222C27.8729 30.6058 28.4413 30.6058 28.8202 30.2222L31.0097 28.1426C31.4728 27.7792 31.4728 27.1331 31.0939 26.8504Z" fill="#E9EBEE"/>
</svg>
