<svg width="30" height="28" viewBox="0 0 30 28" fill="none" xmlns="http://www.w3.org/2000/svg">
<path d="M11.5357 0C14.5952 0 17.5293 1.16675 19.6927 3.24358C21.8561 5.32041 23.0714 8.1372 23.0714 11.0743C23.0714 13.5013 22.2579 15.7453 20.8796 17.5708L28.6098 24.9917C28.944 25.3079 29.1382 25.7358 29.152 26.186C29.1657 26.6363 28.9979 27.0743 28.6835 27.4087C28.3692 27.7432 27.9325 27.9482 27.4645 27.9811C26.9965 28.014 26.5333 27.8723 26.1715 27.5855L26.0331 27.4654L18.3029 20.0445C16.336 21.4157 13.9666 22.1524 11.5357 22.1486C8.47625 22.1486 5.5421 20.9818 3.37873 18.905C1.21537 16.8282 0 14.0114 0 11.0743C0 8.1372 1.21537 5.32041 3.37873 3.24358C5.5421 1.16675 8.47625 4.3766e-08 11.5357 0ZM11.5357 3.49714C9.4424 3.49714 7.43482 4.29545 5.95462 5.71644C4.47442 7.13743 3.64286 9.0647 3.64286 11.0743C3.64286 13.0839 4.47442 15.0111 5.95462 16.4321C7.43482 17.8531 9.4424 18.6514 11.5357 18.6514C13.629 18.6514 15.6366 17.8531 17.1168 16.4321C18.597 15.0111 19.4286 13.0839 19.4286 11.0743C19.4286 9.0647 18.597 7.13743 17.1168 5.71644C15.6366 4.29545 13.629 3.49714 11.5357 3.49714Z" fill="black"/>
</svg>
