<svg width="43" height="41" viewBox="0 0 43 41" fill="white" xmlns="http://www.w3.org/2000/svg">
<path d="M21.0733 9.93498C19.8287 9.96594 18.6193 10.4594 17.5981 11.353C16.5769 12.2467 15.7898 13.5003 15.3363 14.9553C14.8828 16.4104 14.7832 18.0016 15.0503 19.5276C15.3173 21.0537 15.9389 22.4461 16.8364 23.5288C17.7339 24.6115 18.8671 25.3359 20.0927 25.6102C21.3182 25.8846 22.5811 25.6967 23.7215 25.0703C24.862 24.4439 25.8289 23.4072 26.4998 22.0911C27.1708 20.775 27.5158 19.2388 27.4911 17.6767C27.458 15.5819 26.7633 13.5895 25.5597 12.1376C24.3561 10.6858 22.7423 9.89346 21.0733 9.93498ZM21.2729 22.5722C20.5261 22.5907 19.7917 22.331 19.1625 21.8257C18.5334 21.3204 18.0377 20.5923 17.7383 19.7335C17.4388 18.8747 17.349 17.9237 17.4802 17.0008C17.6114 16.0779 17.9576 15.2246 18.4752 14.5487C18.9928 13.8728 19.6585 13.4047 20.388 13.2037C21.1176 13.0026 21.8783 13.0775 22.5739 13.4191C23.2695 13.7606 23.8688 14.3533 24.296 15.1223C24.7232 15.8913 24.9591 16.802 24.9739 17.7393C24.9927 18.9958 24.6136 20.2103 23.9198 21.1164C23.2259 22.0225 22.274 22.546 21.2729 22.5722Z" fill="#E9EBEE"/>
<path d="M20.6858 0.780629C16.5945 0.879642 12.6138 2.12943 9.24716 4.37196C5.88047 6.61449 3.27896 9.74903 1.77161 13.3792C0.264269 17.0094 -0.081215 20.9721 0.778852 24.7664C1.63892 28.5606 3.66591 32.0159 6.60349 34.6953C9.54108 37.3747 13.2573 39.1578 17.2823 39.8193C21.3072 40.4807 25.4601 39.9908 29.2158 38.4113C32.9715 36.8319 36.1613 34.2339 38.3818 30.9459C40.6023 27.6579 41.7538 23.8276 41.6906 19.9394C41.5998 14.7274 39.3373 9.78318 35.3995 6.19147C31.4617 2.59976 26.1701 0.653849 20.6858 0.780629ZM12.3761 35.2264L12.3447 33.2927C12.3277 32.1758 12.7778 31.0936 13.596 30.2837C14.4142 29.4737 15.5337 29.0023 16.709 28.9727L25.5743 28.7582C26.7496 28.7308 27.8836 29.1478 28.7274 29.9175C29.5713 30.6871 30.056 31.7467 30.0754 32.8636L30.1067 34.7973C27.4406 36.3554 24.3939 37.2162 21.2784 37.2916C18.163 37.367 15.0907 36.6543 12.3761 35.2264ZM33.017 32.6885C32.9576 30.8473 32.1395 29.1092 30.7388 27.8487C29.3381 26.5882 27.4671 25.9063 25.5287 25.9497L16.6634 26.1642C14.7252 26.2146 12.8777 26.9866 11.519 28.3139C10.1604 29.6411 9.39928 31.4174 9.39973 33.26C6.68337 31.0511 4.74523 28.1031 3.84195 24.8066C2.93866 21.51 3.11284 18.0204 4.34143 14.7997C5.57001 11.579 7.79504 8.77916 10.7219 6.77097C13.6487 4.76279 17.1394 3.64096 20.7315 3.55402C24.3237 3.46709 27.848 4.41915 30.8377 6.28415C33.8274 8.14914 36.1416 10.8391 37.4737 13.9978C38.8058 17.1565 39.0931 20.635 38.2975 23.9727C37.5019 27.3104 35.661 30.3498 33.0184 32.6884L33.017 32.6885Z" fill="#E9EBEE"/>
</svg>
