<svg width="42" height="41" viewBox="0 0 42 41" fill="none" xmlns="http://www.w3.org/2000/svg">
<path d="M21 31.8316C21 33.9537 21.525 35.906 22.407 37.6461L21 38.9406L17.955 36.1395C7.14 26.2292 0 19.6719 0 11.6716C0 5.11427 5.082 0 11.55 0C15.204 0 18.711 1.71891 21 4.41398C23.289 1.71891 26.796 0 30.45 0C36.918 0 42 5.11427 42 11.6716C42 14.7062 40.95 17.5286 39.102 20.3934C37.443 19.587 35.574 19.0989 33.6 19.0989C26.649 19.0989 21 24.8074 21 31.8316ZM35.7 23.3432H31.5V29.7095H25.2V33.9537H31.5V40.32H35.7V33.9537H42V29.7095H35.7V23.3432Z" fill="black"/>
</svg>
