<svg width="42" height="41" viewBox="0 0 42 41" fill="none" xmlns="http://www.w3.org/2000/svg">
<path d="M23.052 0V4.07844C32.2938 5.16871 38.841 13.2246 37.7042 22.0882C36.7358 29.4374 30.7149 35.2724 23.052 36.1406V40.1787C34.6306 39.0682 43.0514 29.2153 41.8936 18.1107C40.9462 8.5203 33.0096 0.948943 23.052 0V0ZM18.8416 0.0605708C14.7364 0.444186 10.8208 1.95846 7.62084 4.50243L10.6313 7.4906C12.9891 5.67347 15.8311 4.50243 18.8416 4.09863V0.0605708V0.0605708ZM4.6525 7.34926C2.02027 10.4128 0.400414 14.1596 0 18.1107H4.21041C4.6104 15.2437 5.78931 12.518 7.66294 10.2365L4.6525 7.34926ZM0.021052 22.1487C0.442093 26.106 2.0631 29.8412 4.67355 32.9102L7.66294 30.023C5.8039 27.7406 4.61872 25.021 4.23146 22.1487H0.021052V22.1487ZM10.6313 32.9909L7.62084 35.757C10.8098 38.3064 14.7138 39.8941 18.8416 40.32V36.2819C15.8467 35.9105 13.011 34.7739 10.6313 32.9909V32.9909ZM31.0939 26.5704L22.4415 18.2722C23.3046 16.1724 22.8204 13.7092 21.0099 11.993C19.1153 10.1557 16.2732 9.79229 13.9786 10.8018L18.0627 14.7187L15.2206 17.4646L11.0313 13.5275C9.89446 15.7282 10.4208 18.4539 12.2733 20.2912C14.0838 22.0276 16.6522 22.4718 18.8416 21.6642L27.494 29.9422C27.8729 30.3258 28.4413 30.3258 28.8202 29.9422L31.0097 27.8626C31.4728 27.4992 31.4728 26.8531 31.0939 26.5704V26.5704Z" fill="black"/>
</svg>
