<svg width="42" height="41" viewBox="0 0 42 41" fill="none" xmlns="http://www.w3.org/2000/svg">
<path d="M36.8023 25.2H15.4271L15.9044 27.72H35.4765C36.5995 27.72 37.4318 28.8462 37.183 30.0289L36.7807 31.9406C38.1436 32.6551 39.0833 34.1639 39.0833 35.91C39.0833 38.3671 37.2226 40.355 34.9399 40.3195C32.7653 40.2857 30.9769 38.3798 30.9182 36.0318C30.8861 34.7492 31.3619 33.5867 32.1434 32.7599H16.8566C17.6132 33.5605 18.0833 34.6757 18.0833 35.91C18.0833 38.4153 16.149 40.4327 13.8053 40.3151C11.7243 40.2108 10.0318 38.3948 9.92243 36.1479C9.83799 34.4127 10.6834 32.8833 11.9678 32.0855L6.84564 5.04H1.75C0.78349 5.04 0 4.19383 0 3.15V1.89C0 0.846168 0.78349 0 1.75 0H9.22607C10.0574 0 10.774 0.631654 10.9406 1.51121L11.6089 5.04H40.2493C41.3723 5.04 42.2046 6.1662 41.9557 7.34887L38.5088 23.7289C38.3277 24.5894 37.6194 25.2 36.8023 25.2ZM29.75 13.23H26.25V10.08C26.25 9.38408 25.7277 8.82 25.0833 8.82H23.9167C23.2723 8.82 22.75 9.38408 22.75 10.08V13.23H19.25C18.6056 13.23 18.0833 13.7941 18.0833 14.49V15.75C18.0833 16.4459 18.6056 17.01 19.25 17.01H22.75V20.16C22.75 20.8559 23.2723 21.42 23.9167 21.42H25.0833C25.7277 21.42 26.25 20.8559 26.25 20.16V17.01H29.75C30.3944 17.01 30.9167 16.4459 30.9167 15.75V14.49C30.9167 13.7941 30.3944 13.23 29.75 13.23Z" fill="black"/>
</svg>
