<svg width="42" height="41" viewBox="0 0 42 41" fill="none" xmlns="http://www.w3.org/2000/svg">
<path d="M21 32.1116C21 34.2337 21.525 36.186 22.407 37.9261L21 39.2206L17.955 36.4195C7.14 26.5092 0 19.9519 0 11.9516C0 5.39427 5.082 0.279999 11.55 0.279999C15.204 0.279999 18.711 1.9989 21 4.69398C23.289 1.9989 26.796 0.279999 30.45 0.279999C36.918 0.279999 42 5.39427 42 11.9516C42 14.9862 40.95 17.8086 39.102 20.6734C37.443 19.867 35.574 19.3789 33.6 19.3789C26.649 19.3789 21 25.0874 21 32.1116ZM35.7 23.6232H31.5V29.9895H25.2V34.2337H31.5V40.6H35.7V34.2337H42V29.9895H35.7V23.6232Z" fill="#E9EBEE"/>
</svg>
